<?xml version="1.0" encoding="UTF-8"?>
<svg version="1.1" viewBox="0 0 1600 1485" width="1280" height="1280" xmlns="http://www.w3.org/2000/svg">
<path transform="translate(278,3)" d="m0 0h65l573 1 58 1 305 1 20 3 21 6 23 8 18 8 13 5 30 20 8 6 10 8 25 25 7 8 12 14 9 13 8 15 9 16 8 17 12 36 4 18 1 13 2 7 1 21v171l5 17 8 30 3 17v214l31 1 11 4 10 9 7 10 2 9v47l-1 273-1 68-4 10-6 8-12 7-7 1-34 2h-7l-1 53-2 18-4 22-8 26-9 21-8 16-9 16-9 14-12 16-9 11-14 15-13 12-14 11-13 10-14 9-24 13-20 9-29 9-26 6-18 2h-149l-24 1h-179l-133-2-105-1-18-1-2 4h-163l-48-1-192-1-19-3-15-4-4-3-25-7-21-9-15-6-21-12-17-12-14-11-8-7-4-5-8-7-12-12-7-10-9-11-9-15-8-14-9-16-8-20-7-18-7-26v-8l-1-5-1-15-1-260-1-171-2-165v-318l1-44 3-27 7-29 8-24 10-22 11-20 14-21 12-16 14-15 20-20 14-11 20-14 20-12 31-14 28-9 18-4 21-3z" fill="#0E0D14"/>
<path transform="translate(1331,337)" d="m0 0h33l15 2 12 2 5 2 12 3 15 6 16 8 4 3 7 4 16 12 12 11 8 8 9 11 4 5v2h2l4 6 7 11 6 12 2-1 5 17 8 30 3 17v214l31 1 11 4 10 9 7 10 2 9v47l-1 273-1 68-4 10-6 8-12 7-7 1-40 2-394-1-9-4-8-6-6-11-1-3v-189l-4 1h-176l-159-1-8 1-8 6-3 7 1 9 4 8 6 4 190 1 10 2 9 4v2l5 2 10 9 6 7 6 12 2 9 1 25v38l-1 30-3 14-4 11-8 15-9 11-7 7h-2l-1 3-8 6-11 6-17 8-24 9-26 8-37 8-34 5-36 3h-49l-34-3-30-4-33-7-21-6-23-8-18-8-16-10-11-9-10-10-11-15-6-12-6-17-4-15-1-15 1-161 1-93 2-21 6-20 7-16 9-14 8-10 12-13 14-11 20-11 12-5 19-5 15-2h250l30-5 9-3 12-5 17-8 17-12 11-9 7-8 8-8 7-10 5-7 10-22 6-18 4-17 1-7 1-97 1-9 4-8 8-7 6-3 5-1h68l1 1 24 3 17 8v2h4l1-4 6-18 8-16 9-15 7-10 3-4h2l2-4 9-10 14-13 19-14 14-8 14-7h4v-2l6-2 14-5 15-3 1-1z" fill="#6B6B6C"/>
<path transform="translate(704,184)" d="m0 0h63l35 3 35 5 27 6 26 8 26 11 16 9 12 9 10 9 11 14 8 13 9 19 4 13 2 13v116l-1 103-1 22-2 18-5 21-8 19-10 15-7 10-10 11-8 7-13 10-17 9-15 6-17 4-17 2-80 1h-172l-18 3-16 5-18 8-17 10-14 10-12 11-9 11-11 16-9 16-7 18-6 25-1 7-1 20-1 100-3 11-4 7-8 7-10 4-4 1h-66l-21-3-18-5-19-9-14-10-15-13-10-12-10-15-8-16-9-19-11-33-6-24-5-27-3-26-1-18v-44l4-43 5-31 7-31 11-33 12-25 7-12 8-11 12-14 9-9 13-10 18-10 17-7 25-5 11-1h221l90 1h34l9-3 3-3h2l2-6v-7l-4-9-5-5-3-1-177-1-16-2-11-4-14-9-9-10-7-12-4-15-1-7v-77l3-14 7-16 10-15 11-12 8-7 18-11 17-8 24-8 36-9 28-5 40-4z" fill="#116793"/>
<path transform="translate(1044,462)" d="m0 0h68l1 1 17 2 10 4-5 4-7 4-16 5-5 11-3 11-2 5h-2l-1 9h-2v8l-2 11-2 12-1 13-1 9v26l-1 35v34l-1 11-1 28-2 29-4 15-3 4-4 8-2 3h-2v2h-2v2h-2l-2 4-6 7-5 5h-2l-2 5-7 8-7 18-1 1-5 33-2 29-3 29v8l-5 25v17h-251l-8 1-8 6-3 7 1 9 4 8 6 4 190 1 10 2 9 4v2l5 2 10 9 6 7 6 12 2 9 1 25v38l-1 30-3 14-4 11-8 15-9 11-7 7h-2l-1 3-8 6-11 6-17 8-24 9-26 8-37 8-34 5-36 3h-49l-34-3-30-4-33-7-21-6-23-8-18-8-16-10-11-9-10-10-11-15-6-12-6-17-4-15-1-15 1-161 1-93 2-21 6-20 7-16 9-14 8-10 12-13 14-11 20-11 12-5 19-5 15-2h250l30-5 9-3 12-5 17-8 17-12 11-9 7-8 8-8 7-10 5-7 10-22 6-18 4-17 1-7 1-97 1-9 4-8 8-7 6-3z" fill="#F3B914"/>
<path transform="translate(1331,337)" d="m0 0h33l15 2 12 2 5 2 12 3 15 6 16 8 4 3 7 4 16 12 12 11 8 8 9 11 4 5v2h2l4 6 7 11 6 12 2-1 5 17 8 30 3 17v214l31 1v1l-31 1h-77l-197-1-1-32-3-34-4-28-6-28-4-15-7-22-10-25v-3h-2l-1-7h-2l2 7v11l-1 16-1 65 1 96h-84l-9 2-12 6-2 6-3 5h-2l-2 14v375h-1v-176l-4 1h-176v-1h92l-1-5v-12l5-25v-8l2-22 1-7 2-29 5-33 4-9 5-11 2-3h2l2-4 3-5 4-3h2l2-5 4-2 3-6h2v-2h2v-2h2l7-14 3-7 2-9 2-29 1-34 1-5v-36l1-43v-16l1-9 1-13 2-12 3-19h2l1-9h2l1-5 4-13 5-10 16-5 9-6 1-1-4-3 5 1 15 7v2h4l1-4 6-18 8-16 9-15 7-10 3-4h2l2-4 9-10 14-13 19-14 14-8 14-7h4v-2l6-2 14-5 15-3 1-1z" fill="#8F9090"/>
<path transform="translate(1222,530)" d="m0 0h2l1 7h2l15 40 5 17 5 22 4 20 4 30 2 26v32h309l10 5 9 9 6 10 1 7v47l-1 273-1 68-4 10-1-4 2-5 1-9v-28l-1-16-1-8v-12l1-5h-2v-2h2l-3-25-2-22-3-11-2-4-10-3-10-5-6-7h-9l-1-3-6-1-8-4-10-4-5-1v-2l-18-2-4-2-2-3-7-4-4-2-6 1-12-2-6-4-10-2-9-3-2-5-5-1-6-5-2-1-2-7v-4l-11 3-2 4-4 2-1 4h-3v2l-5 3-7 3-3 1-1 4h-3v-5l9-8 9-6 9-9 6-10 2-3 4-16v-17l-3-9-4-9-7-11-4-5-11-9-13-7-9-3-6-1h-20l-21 8-9 7-9 9-8 16-4 10-1 4v22l2 10 6 11 8 10 9 7 9 5 1 1 1 119 5 7 8 4h22l12-2 4 1-1 4-1 1-17 2-5 1h-16l-5-2-8-10-2-7-3-52v-13l1-16 1-6-1-6-6-12v-4l3-3-4-4-7-6-5-5-7-8-6-12-4-14-1-7v-7l-1-8-1-4 2-5h2l1-9 1-2h2l1-14 1-2-3-1v-2l-9 2-3-6v2l-5 1-3-5-4 1-2-5-6 1-8 1-1-4h-3l-2-4 2-2-5-1-1-3h-3l2-9h-2l-1 4-3 3-1-2 1-2-7-2v3l-2 1h4l1 5-6-3-4-3h3v-3h2l-2-2h-2l-1-3 1-1-5-5-3-2v-2h-3l-1-2-3 1 1-4-5-1v2h3v2l-6 1-1-4h2v-2l2-1-2-4-8-1-2-1h-5l-4-4-4-1v2l-9-1-1-3 7 1v-2h-2v-2h-4l1-3 3 1-2-2-8 1-3-7-2-1 2 7 2 3-5-1 2 4-2 1-2-1v-6-4l1-4h2v-2l-3-1v3l-7 1-1-3-3 5-7-1v-3h-4v3l3 2-1 3 2 1v-3l4 1-2 4-3 5h-3l-3-4-5-13h-3l-2 1-1 7h2v-3l3 1 1 4h2v2h-2l-1 3h-2v-3l-5-1-1 3 3 1v2l-1 1 5 5-1-5 6-3h2v3h-5l1 5-6 2-4-5 1 6h-2l1 5-1 49v207l-1 99 2 10 2 5-3-1-4-8-1-3v-388l2-12 1-2h2l1-4 4-7 7-5 8-3 6-1h83l-1-95 1-65 1-20v-7z" fill="#8F9090"/>
<path transform="translate(1336,413)" d="m0 0h25l23 5 15 6 15 9 10 9v2l4 2 10 10 12 17 6 12 2 10h2l3 14 1 12v202h-202l-1-31-3-34-4-28-6-28-4-15-7-22-10-25v-3h-2l-1-5v-10l2-13 6-20 8-16 7-11 9-11 10-10 13-10 7-5 7-3 5-3 24-6z" fill="#0E0D14"/>
<path transform="translate(278,3)" d="m0 0h65l573 1 58 1 305 1v1l-179 1-7 1-8-1-1 3h-10l-14 4-1 4h-5l1 6h-2v2l4 2-1 3-12 1-4-1-1 2-7 1-46 1-716 1-19 2-24 5-20 6-24 10-16 8-18 11-5 4-9 7-16 13-17 17-16 20-10 15-10 17-12 25-8 24-7 31-1 7v22l-1 2h2l-1 3-2-1 1 46-1 203-2 52h-1l-1-9 1-3-4-1-2-9-1-3 1-9-4-5-5-1v-4h2l1-8h-6l-1 7h-2l1 5 1 2v8l-2 5-3 12h-2l-1 10-1 1-1 43h-1v-318l1-44 3-27 7-29 8-24 10-22 11-20 14-21 12-16 14-15 20-20 14-11 20-14 20-12 31-14 28-9 18-4 21-3z" fill="#454449"/>
<path transform="translate(1134,466)" d="m0 0 5 1 15 7-2 1 3 7-1 12-3 22-1 15v192h-11v2l-9 2-12 6-2 6-3 5h-2l-2 14v375h-1v-176l-4 1h-176v-1h92l-1-5v-12l5-25v-8l2-22 1-7 2-29 5-33 4-9 5-11 2-3h2l2-4 3-5 4-3h2l2-5 4-2 3-6h2v-2h2v-2h2l7-14 3-7 2-9 2-29 1-34 1-5v-36l1-43v-16l1-9 1-13 2-12 3-19h2l1-9h2l1-5 4-13 5-10 16-5 9-6 1-1z" fill="#BA8F17"/>
<path transform="translate(1362,1170)" d="m0 0h164l-1 10-1 44-2 18-4 22-8 26-9 21-8 16-9 16-9 14-12 16-9 11-14 15-13 12-14 11-13 10-14 9-24 13-20 9-29 9-26 6-18 2h-149l-24 1h-179l-133-2-105-1-18-1-2 4h-163l-48-1v-1l30-1v-1h65l5-1 2 2 10-2 2-1h14l10-2 6-1h3v-4l-3-1-5 2-3-5-5-2h-3l-1-4 3-3 5-2 6-1h58l15 3 5 2 2-4 7 1 2 3h9l3 2v3l2 1v2l4-1 3-3h4l4-5v-3l20-1 4 1-4 3h-3v2l-4 2 1 3h-4l-1 2 2 1h-2l2 4 2-3h8l4-2 4 2v5l-7-2-1 6 70 1h44l1-1 22-1h18l5-1h3l10-1v-3l-2-1v-4l-9 1-2-4h-6l-2-2v-5l-2-2 23-1h296l48-1 21-2 23-4 32-9 15-6 16-8 15-8 10-7 6-4h2v-2l6-4 9-7 6-5 19-19 7-8 10-12 13-19 11-20 5-11 6-14 8-24 4-18 2-19 1-17 1-28v-4l-131-1z" fill="#27262A"/>
<path transform="translate(1344,823)" d="m0 0h20l8 2 11 4 9 5 12 10 10 14 4 9 3 6 1 5v17l-4 16-6 10-9 10-8 7-9 6-3 3 1 72 1 37-2 11-5 4-15 4h-22l-8-4-6-8-1-119-9-5-9-7-7-8-6-10-3-9-1-5v-22l4-12 8-16 7-8 7-7 9-5z" fill="#0E0D14"/>
<path transform="translate(1133,1019)" d="m0 0 9 2 4 4v2l5 2 5 4 10 6 1-2 5 5 3 1v2l-6-1-7-4 1 1-1 2 8 4 4 3 8 1 5 5 10 8 1 2 3 1 1 2 4 2v2l9 3-7-5-1-2-3-1-4-4v-2h-2l-6-7-9-6v-2l5 2 8 4 1-2 9 4 5 2 9 8v2l4 2 5 4 4 2 5 7 3 2 4 7 3 3-6-1-5-2-1-4-5-2-1 2-3-1-2-2 4 4 4 1v3l3 1v2l3 1v2h2l5 6v5l-1 3 3 4v2l3 1-2 4-3 2 1 4h2l2 6h7l-3 4 1 3 8 4 8-1 3 3v2h4v-2l5 1 2 1h9l9 3v-2h4l2 4h6l11 4 8-1 13 4h16l8 2 4-1 12 1h16l2 1h37l28 1h25l14-3 5 1 19 1 13 2h3v2l-2 1-22 1-394-1-9-4-8-6-1-5-2-5-1-7 1-99 1-23 2 4 1 4 7 3 10 4v2l4 1 2 1v2l6 1 7 3v-2l-6-2 1-3-5-1-2-4-7-4h-5l-4-2v-3l-4-3 8 1 1 3h7v3l5 1v2h4l1 2 11 6h2l-1-4-7-2-2-2-7-3-1-5-7-3z" fill="#565557"/>
<path transform="translate(1007,631)" d="m0 0h2l-2 9-8 17-3 4h-2l-2 4-4 5 1 3 3-1 8-11 3-3 6-11 5-6h4l-1 10-9 17-10 14-15 16h-2l-1 3-10 8-9 7-13 8-23 10-21 7-17 3-27 1h-90l-72 2-4 2h-6l-4 7-6 3-11 6-12 1-16 8h-7l-11 8-5 3h-3l-2 5-8 4h-2v2h-2v2l-4 1-1 3-15 9-6 3-10 10-12 9-5 4-4 5-9 3-5 4-7 2-4-4v-2h-2v-3h-2v-2l-4 1-2 10-2 9-1 1-1 23-1 49h-1v-79l2-21 6-20 7-16 9-14 8-10 12-13 14-11 20-11 12-5 19-5 15-2h250l30-5 9-3 12-5 17-8 17-12 11-9 7-8 8-8 7-10 5-7z" fill="#FDDB4F"/>
<path transform="translate(1331,337)" d="m0 0h33l15 2 12 2 5 2 12 3 15 6 16 8 4 3 7 4 16 12 12 11 8 8 9 11 4 5v2h2l4 6 7 11 6 12 2-1 5 17 8 30 3 17v49l-1 62-2 2-1-7v-17l-1-2-1-75h-1l-2 19-1 9v3l-1 4h-2l2 15-2 5v19l-1 8-1 10-2 26-3 1v2h-2l-1 4h-1l-1-17 1-2-1-5 1-4-3 1-2 2v-4l3-1v-7h-2v-2h3l-2-5-4-2-1-7 1-5-3-13 1-9 4-1v-2h-2l-3-5v-17l-1-5v-21l1-5-2-5v-13l-4-11-6-11-3-4 1-5-6-11-8-13-13-16-15-14-10-7-13-7-4-3-13-4-9-4-15-3-11-3h-8l-14-1-3-1-3 2-15-1v2l-5-1-2-1-8 2v3l-9-1-5 3-6 2-2 3h-7l-5 5h-5l-5 4-2 4h-6l1 4-2 2-9-1 3 4-1 4h-8l-1-3-5-1-8-8 1-9 1-3-4 1-4 4-4 2-1 2-6-1-2 6h-4l-1 3-6 3-7 8h-2l-2 4-2 5-5 4-3 5h-2l-3 9h-2l-1 6-1 3-2 1-2 5-3 14-1 4h-2l-1 5h-1v-9l6-18 8-16 9-15 7-10 3-4h2l2-4 9-10 14-13 19-14 14-8 14-7h4v-2l6-2 14-5 15-3 1-1z" fill="#AFAFAF"/>
<path transform="translate(1222,530)" d="m0 0h2l1 7h2l15 40 5 17 5 22 4 20 4 30 2 26v32h309l10 5 9 9 6 10 1 7v47l-1 161h-1l-1-21-1-72-2-3-2-12-2-16v-7l-3-14-4-7-6-5-1-4-6-2-4-4v-2h-2v-2h-2v-2l-5-2-3-3-6-3v-2l-7-2-9-4-2-2-9 1-4-4-2-4-6-2-6-3-5-2v-2l-7-2-4-4-11-6-6-3v-2l-32-4-3 1-7-1h-7l-7 1h-6l-10-2-8-1h-11l-8 1-16-1h-50l-7-1h-75l-1-3-11 2-38-1h-35l-8 2-6 4-4 5-4 7-1-4 6-11 7-5 8-3 6-1h83l-1-95 1-65 1-20v-7z" fill="#AEAEAE"/>
<path transform="translate(743,448)" d="m0 0 4 4 1 8-3 8-4 5-14 7-4 1-19 1h-303l-6 1-4 1 1 4-5 1 1 7-1 3-1 4-5 4-4 2-2 4h-2v2h-2v2h-5l-2 7-4 3-4 5-5 2h-4l-1 3h-2v5h-6l-9 6-7 3-11 6-2 2h-5l-4 3h-2l-1 3-8 1v3l-11 7-5 3-7 7h-3v2h-5v2l-3 1-2 3h-2l-1 5-5 15-5 19-2 4-2 9-4 15-2 7-3 9-2-1 1-12 6-40 4-23 11-33 12-25 7-12 8-11 12-14 9-9 13-10 18-10 17-7 25-5 11-1h221l90 1h34l9-3 3-3h2l2-6h2z" fill="#2585B9"/>
<path transform="translate(17,533)" d="m0 0 4 1v6l-1 2h-2l2 3 5 3 3 4-1 10 2 4v7l4 1 1-17h1l1 21v235l-1 113v28l-1 80-11-1-3-1 1 7-3 2h-3l-2 9-3-1v3h2v5l-4 1 1 22h1l1 8-2 2-1 133h-1l-1-260-1-171-1-83v-125l2-7 1-4h2l3-16 1-1v-8l-2-4 1-3h2l1-7z" fill="#262529"/>
<path transform="translate(1100,7)" d="m0 0h188l23 5 32 11 18 8 13 5 30 20 8 6 10 8 25 25 7 8 5 6h-3v-2l-10-3-4-5h-3l-3 5h-2l-1 2h-6l-3 2-5-1v-4h-7l-5-2-5-5-5-4-6-3-6-4-11-8-14-9-5-2 1 3 5 1 6 3 4 4 7 4 2 4 5 1 3 2v2l6 2v2l4 2 2 2-4 1-2-1v-2l-4 2 1 3-10 2-2 1v-4l2-2-7-2-3 2-5-2-7-1 1-4-5-1v-2l-3 1-1-1h-6l-2-3-9-1-1-4 11-1 5-2 1-4h-2v-2h-5v2l-4-2 1-7-8-4v-2l-4-1 4-2-9-4-22-7-22-5-32-2h-977v-1l729-1 33-1h7l1-3 7 1 9-1v-2l-4-2 2-3v-5l5-1 1-4 9-3 9-1h6l1-2h13z" fill="#262529"/>
<path transform="translate(704,184)" d="m0 0h63l35 3 35 5 27 6 26 8 17 7-1 3-4 3v5l-5 2h-4l-1 2-4-1-5 6-9 1-2 1-3-2-5 1-6 1-3-1v-2l-9 2-4 3h-10l-6 1-5-2h-15l-4-2-2-3-6-3-6 1-5-1-2 5h-6v-3l-7-1-5 1-4-2-5 1-3 1-9-3v-2l-2 1h-6l-1-1-12-2-15 2-5-1-8 1-6-2-2-2-6 3-12-1-1 4-5-2h-9l-3 1-9-2-1-1h-12l-9 3-7-1-10 5-12 1v-4l-5 2-1 2-3-1 1-6-17 6-15 8-14 10-7 6-11 15-8 16-7 21-3 8-2 1-1 5h-2v5l-2 1-2-15 1-22 4-17 9-16 10-13 10-10 15-10 17-9 21-8 29-8 27-6 26-4 32-3z" fill="#2585B9"/>
<path transform="translate(1352,386)" d="m0 0 22 1 23 5 10 3 12 7 6 3 16 13v2l4 2 10 11 2 4v3l3 1 2 3v3l3 1 6 11 7 13 3 10 2 3 1 8 3 8v77l1 7v21l1 29v32l2 23v21l2 12-2 1h-23l-2-3-2 2-1-202-1-12-2-9v-5h-2l-4-12-7-13-12-16-14-14-10-8-16-9-14-5-20-4h-25l-14 1-24 6-8 5h-2v-2l-10 5-1 1h-6l-1 3-10 2-1-2 3-5h3l2-4 4-2 2-5h2l2-4 4-4h3l1-3h2v-2l17-8 4-3 5-2 9-1 5-1 8-1 3-1h13z" fill="#434248"/>
<path transform="translate(1135,756)" d="m0 0 1 3-1 2 3-1 4 1 1-4h2l1 2h7v-3l4 1-3 3 1 6-2 7 3-1-1-3h4l-3-4v-5l3 1 2 4v3l9-2 1 3h-3l-1 2h4v2h2v2l-7-1 1 2 9 2v-2l5 1 3 2v2l6-1 1 1 8 1 2 5 2 1h-4l-1 6 4-2 2 1v-2h-3v-2h5l1 2h-2v3l3-2 3 1h-2v2h3v2l4 2 5 6-1 3 3-1 1 3h-2l1 5 4 1 1 1v-3l-4 1-1-4 1 2h2v-3l5 1 2 1 1 3 3-6h2v7 2l4-1-2 3 6 2-2 3 5 3 1 3 7-1h6l2 4 4-1 3 3v3l5-1v-2l2 1 2 4 8-1 3 3-1 13-1 3h-2l-2 11h-2l-1 6 1 5 1 13 2 12 3 9-2 4-4 2-5-4v-2l-2-1v-3l-6-2 2-1-1-4-9-1-7-4-14-14-5-2 2-2-2-2-3 1 4 5 4 2h-2v2l3 1v2l8 4 1 3h2v2l4 1 7 3 3 1v4l5 2 2 4-5-2-3-3v-2l-4-1v3l3 1-3 1-2-5-4-1-5-5-6-3v-2l-4-1-3-4-1-1-1-3-4-2-1-4-5-1 2-1-2-2-2-1 1-4-5-2-3-3-8-3v-4l-4 1-3-3-1-4-9 1v2h6l-1 4 2 1-1-3 3-1v2l10 6 4 6-1-3 5 2 3 4v3l-4-2v-2h-6l-2-1v-2h-2l4 4 5 1-4 2 9 2 1 2 3 1 1 4-9-3 3-1v-2h-8l-4-3-5-2-5-5h-2l-5-2 6 4v2l3 1 1 4-5-2-3-2v-3l-6 1-3-3 2 4 3 1 4 6v3l-3-1-5-5-3-1-2-4-3-3-4-1v-2l-5-1 1-3-6-5-1-5 2-4-4-1-6-3v-2l6-2v2l3 1v2l7 1v-2h3l1-2-4 1-3-5-2-5-3-2-4-2v-3l-4 2 2 2 5 2-1 2h-3l5 3 1-2 6 9-5-1-1-3-5-2-7-6v-2l-2-1 4-5 2-1-7-3 1-3-5-1 4-1v-2l-3 1-3-2 5-3 4 2 1 5 4-2-1 4 5 2h2l1-2-5-1v-2l9 2-1-2-6-1v-2l-5 1-2-1v-2h-3v-2l-2-1v-3l4 2 7 4 1-2 7 3-1-2-12-3-2-3 9-2-1-2-10 1v2l-7 1-5-3v-2l-4-1-5-5v-2h2l1-3h5l-2-4 1-3-7-2 1-3 5 3v-3l-4-1 2-2h5v-2l-6-1 3-5v-2l-3-1v3l-3-1 1-3-3-2 1-4 3 1z" fill="#7C7C7D"/>
<path transform="translate(1417,926)" d="m0 0h5l2 11 5 2 4 4 4 1 2 4 6 2 5 2 10 2 4 3 16 2 3-1 7 5 5 3v2l13 2 9 2v2h6l15 7 8 3 1 2h9l6 6v2l9 3 7 3 5 2 4 10 1 8 2 21 2 18v5h-2v2h2v21l1 6 1 17v25l-3-3v-5l-2-7 1-4-2-18v-9l-2-9-4-20-3-3-5-3-2-4h-2v-3h-2v-2l-5-2-3-3-9-3-3-3h-10l-4-2h-6l-1-1-11-1-3-1-3-3-8-4-5-1-12-6-12-2h-5-4l-6-4-1-2-9-1-3-4-1 3h-2v-2h-2v-2h4l-1-2-9-3-5-5v-2l-7-2-1-2-5-2-8-7-2-2-5-2-1-3 1-3-2-2 1-4 2-3h2l1-5-2-6h-6l-2-1v2l-6 2v-3l10-5h2v-2l3-1 1-3 5-4 4-4z" fill="#7C7C7C"/>
<path transform="translate(1107,762)" d="m0 0h1l1 100v271h-1v-176l-4 1h-176v-1l120-1-1-10v-9l3-13 3-22 1-21 1-6 3-40 2-13 7-16 6-9 2-1 3-5h2v-2l6-4 7-8 4-3 8-4 1-1z" fill="#8E762C"/>
<path transform="translate(22,268)" d="m0 0 3 1 5 10v6 3l-1 5 2 4 2 1-1 6h1l3-35h1l1 12-1 2h2l-1 3-2-1 1 46-1 203-2 52h-1l-1-9 1-3-4-1-2-9-1-3 1-9-4-5-5-1v-4h2l1-8h-6l-1 7h-2l1 5 1 2v8l-2 5-3 12h-2l-1 10-1 1-1 43h-1v-122l1-158 3-9 1-14 1-5v-21l3-11v-2h2l1-2v2h2l-1-4 4-8z" fill="#3B383B"/>
<path transform="translate(1151,473)" d="m0 0 3 2h-2l3 7-1 12-3 22-1 15v192h-11v2l-9 2-12 6-2 6-3 5h-2l-1 2 1-4 3-5v-13h-2l-1-10-1-11 1-15 2-7-2-1 1-24 1-42-1-12 1-7v-27l1-15 2-16 4-18 4-11 2-5 4-15 6-8h2v-2l5-1 2 1 1-3h5z" fill="#90772B"/>
<path transform="translate(1197,422)" d="m0 0 6 1v3l-1 3 3 4-4 1-6 12v6l-5 2 1 7-3 9v9l1 4-3 1v11l-2 8-2 3v8l-3 5 4 1 2 3-1 5-3 1v-2l-4-1 4 7 2 7 3 9 1 8-3-1v-4l-2 1 1 8 2 3-1 7 4-1 1 5-4 1 1 8v9l2 8-1 3 1 6-5-1-1 3h2l3 7v9h-3v7h2l2 7-1 7 3 1-2 8 4 4v3h-4l2 12-1 12 4 3-1 9 1 4h2v5l1 2v10l-3 2h-37l-1-1 1-211h2v-16l4-14h2l1-5 2-12 5-12 5-5 2-4 3-4 3-5 3-1 5 2v-2l-2-1h2v-6z" fill="#6C6B6D"/>
<path transform="translate(884,1054)" d="m0 0h14l13 4 11 6 8 7 8 11 4 11v17l-4 13-8 13-10 9-12 7-7 2h-19l-11-4-12-7-5-4-7-11-5-12v-18l4-13 6-11 10-10 14-8z" fill="#FCFDFC"/>
<path transform="translate(590,274)" d="m0 0h15l13 4 10 7 6 5 6 8 4 9 2 7v14l-2 9-8 16h-2l-2 4-3 3h-2v2l-11 7-12 4h-14l-15-5-9-6-7-6-9-14-3-12v-9l2-10 4-11 7-10 7-7 16-8z" fill="#FBFCFB"/>
<path transform="translate(521,724)" d="m0 0 2 1-13 12-9 11-11 16-9 16-7 18-6 25-1 7-1 20-1 100-3 11-4 7-8 7-10 4-4 1h-66l-21-3-18-5-19-9-14-10-15-13-7-8 1-2 4 4 5 3 1 3h2v2h2l5 5 3 2v2l5 1-1-5-2-1v-4l3-2h6l3 2 14 2 5 1 3 1 2-2 5 1 8 3 11 1 11-2v2l3-1 1-5 10-9 10-1-1-5 11 1-1-3 4 2 1 4 3 2v-2l8-2 7-1 1 1h9l3-4h2v-3l4-1v-2l3-2 3-7 3-4 5-18 1-13 2-43 2-15 7-28 8-16 10-16 10-14 5-6h2l2-4z" fill="#094B6D"/>
<path transform="translate(880,5)" d="m0 0h94l305 1v1l-179 1-7 1-8-1-1 3h-10l-14 4-1 4h-5l1 6h-2v2l4 2-1 3-12 1-4-1-1 2-7 1-46 1h-195v-1l37-1 7-2 5 1h4l-2-4-3-1v2l-4 1-2-3 1-3h2v-2h2l-3-9 7 1h5l2 1 5-5h7l4-4 4 2 5-1 1-2z" fill="#3C393C"/>
<path transform="translate(605,689)" d="m0 0h101v1l-22 1-1 1-17 1-8 2-1 2 7-2h5l-4 4-11 5-14 1h-12l-8 1-2 2h-12l-12 3-8 4-12 4-7 1-3 3-8 2-11 6h-2v2l-8 4-7 4-4 4h-2v2l-5 3-3 6-6 8-5 10-3 4-3 9-5 11-4 11-3 8 3 1-2 5-4 1 1 6-1 2h6l-1 13-2 19-1 5-5-2 1 9h3l1 6-1 7 1 5-3 10-6 1-4 3 1 4 3 1 6-2 1 10-3 3-1 4 1 6 2 1-3 1 2 5v4h-2l-1 4-1-2-4 1-1 3-4 1v10l-2 2v6l1-2 4 1-1 5-2 2-1 9h-2l-2 5-6-3-1-7 2-3h-2v-2h-3l2-4 6-7 3-9 1-5 1-100 1-20 5-25 6-18 8-16 9-15 10-13 11-12 11-9 15-10 18-10 20-8 18-4z" fill="#0D1015"/>
<path transform="translate(1331,337)" d="m0 0h33l15 2 12 2 5 2 12 3 15 6 16 8 4 3 7 4 16 12 12 11 8 8 9 11 4 5v2h2l4 6 5 7v2l-4-2-4-3-2 1 1 8-1 10h-3l-10-13-11-13v-2l-4-2-4-4v-2l-4-2-3-2v-2l-8-1h-3l-8-6-4-2v-2l-4-2-9-6-4-1-24-12h-5l-8-3-7-2-5 1-10-4-2 1-1 1h-13l-4-2-6 1-8-2v2h-6l-3 4-6-2-4-1h-3v3l-4-1-3-3-2 1v-2l-4 3-2 4h-2v-6h2v-5l-3 2-2 3-2-1-1 3h-3l1-5 1-2-10 4v-4l-8-2-1 5-1-3h-2l-1 3-2-1-1 4-4 1-2-1-2 4h-4l-2 3-6 2 2-4 5-5 16-9 7-3h4v-2l6-2 14-5 15-3 1-1z" fill="#F0EFE9"/>
<path transform="translate(1350,378)" d="m0 0 7 1 4 1 10-1 15 2 9 4 5 1 7 5 9 1v2l5 1 6 2 8 5 9 5v2l4 2 14 15 3 6 6 5 3 6 4 7 4 12 5 8 1 4 1 1 3 16v10l4 13v13l1 14-1 17 1 22 1 2v11l1 3-2 6v13l2 14v14l1 12 1 9v11l1 4v10l1 7-2 2v15l3 9 2 2h-15l1-2-2-11v-25l-2-20v-32l-1-33v-17l-1-12v-71l-4-11v-6l-2-2-3-10-8-14-5-10-2-1-3-6-2-1-4-8-10-11-8-7-13-10-14-7-8-3-15-4-11-2-22-1-5 1h-11l-6 2h-7l-1 1-9 1-24 12h-2v2l-3 3-6 2-2 4-4 5-5 5-2 3h-3l-2 6 10-2 1-2 7-2 2-2 8-2v2l-17 12-13 12-8 9-7 11-3 4-2 5-3 1-1 2h-2l-1 7-5 16-7-2-1-4h3l1-7h-2l2-7v-11l3-4 4-10 3-1 1-6h2l-2-10h9l2-5-1-4-2-1v-2l6-1 1-4-1-6 4-1 2 1v-5h8l1-5 5-1 2-5 5-3 4-4 8-1 1-2 4 1 1-4h2l1-3 9-2 2-2 6-1h4l3-3 5 3h3l1-4 13 1 2-1 3 1z" fill="#6C6B6D"/>
<path transform="translate(987,316)" d="m0 0h1v116l-1 103-1 22-2 18-5 21-8 19-10 15-7 10-10 11-8 7-13 10-17 9-15 6-17 4-17 2-80 1h-172l-18 3-8 1 3-2 19-4 8-1 98-2 44-2 25-2h10v-3l7 1 7-2 2 1 1-2 6-1 19-1 8-3 12-2 15-4 8-2 10-4 5-3 6-3 1-2 9-2 6-4 13-7 8-6 5-5 10-9 8-6 4-7 8-8 6-9 4-5h2l2-10 3-8 1-16 1-19 1-35 2-90z" fill="#094B6D"/>
<path transform="translate(1222,530)" d="m0 0h2l1 7h2l15 40 5 17 5 22 4 20 4 30 2 26v32l-1 1h-38l-1-1-1-95 1-65 1-20v-7z" fill="#EFB715"/>
<path transform="translate(589,1452)" d="m0 0h58l15 3 5 2 2-4 7 1 2 3h9l3 2v3l2 1v2l4-1 3-3h4l4-5v-3l20-1 4 1-4 3h-3v2l-4 2 1 3h-4l-1 2 2 1h-2l2 4 2-3h8l4-2 4 2v5l-7-2-1 6 3 1h-49l-22-1-1 5h-163l-48-1v-1l30-1v-1h65l5-1 2 2 10-2 2-1h14l10-2 6-1h3v-4l-3-1-5 2-3-5-5-2h-3l-1-4 3-3 5-2z" fill="#262529"/>
<path transform="translate(37,1228)" d="m0 0h1l3 19 3 13 1 7 1 5 3 9 3 8 5 12 7 16 7 11 1 5 4 2 5 8 6 7-1 4 2 1v2l3 1 3 5 2 1 1 3 3 3v3l1 5h2l1 4h-2l5 6 2 1v7l2 4 3-2v-2l4 1 2 9 1 3 5 1-1 4h2v2h2l-1 4-3 1 3 3v3l5 2 4 3 6 3v3l-5-2-15-10-15-12-8-6-7-8-8-7-12-12-7-10-9-11-2-5 3-3-3-7-3-3-1-8-6-8 1-5 1-4-4-6-2-1-1-4 4-4h-4-3l-1-1v-8h2l-2-7v-7l3 1-1-3h-3v-8l2-4v-2h-2l-1-5 1-10 1-8-1-4v-4h2z" fill="#262529"/>
<path transform="translate(1170,480)" d="m0 0 2 1-1 6 2 8-2 5 2 2v8l-1 1v8l-1 4 2 3v10l-1 3 2 8-3 1v5l2 3v5h-2l1 7 2 1v6l1 4-2 12v7l1 2-1 6v17l3 4-2 11 1 8 1 4v7l-2 2 1 9v21l1 4-1 10 2 1-1 6 1 8 3 4v2h-23v-118l1-19v-50l2-19 1-11 1-4 1-5 4-13z" fill="#555456"/>
<path transform="translate(990,515)" d="m0 0h1l2 14v13h2l1 3h-3v14l-1 10-3 9v7l1 2-5 13-3 1-2 7-1 2v5h-2l-2 10 1 4 5-7h2l-2 11-3 3h-2l-1 5-4 6-6 10-3 4h-2l-2 4-11 11-8 5-4 2-4 4-7 2-10 4-12 1-3 2h-6v-2l5-2-2-2 3-2-2-1h-6l-4 4h-7l-7-1-13 1h-30l-38-1v-1l65-1 22-3 15-4 20-9 13-8 10-8 13-12 6-8 10-15 5-8 8-20 4-18 2-18h2l2-41z" fill="#0D1116"/>
<path transform="translate(1139,724)" d="m0 0h432l10 5 9 9 5 8v32h-1l-1-20-8-14-8-8-6-4-4-1h-108l-247-1-4 1-38-1h-35l-8 2-6 4-4 5-4 7-1-4 6-11 7-5 8-3z" fill="#EFEEE8"/>
<path transform="translate(1411,430)" d="m0 0 5 2 4 2 4 4 8 5v3l4 1 8 6 7 9 7 6v2h2v3l3 1 2 6 5 8 2 10 2 9 2 19 1 10-1 15 1 3v16l-1 11-1 7-2 3 2 1-1 6v7l-1 4v60l-1 4-1 18-1 23-1 9 2 1-4-1-1-2-2 2-1-202-1-12-2-9v-5h-2l-4-12-7-13-12-16-14-14-10-8z" fill="#565557"/>
<path transform="translate(1169,801)" d="m0 0 6 1 2 5h3l-1-3h2v3l5 1 2 6 9-1-1 3-8 2v2l-2 1 5 5v2h-3v2l-1 1 3 3 4-1v-2l4 2h3l1 3-1 2 6 2 1 2 5 2v2h-3l1 7 2 1-1 2 3 2 2-1v3l3-1 1 2-2 5-1-3-4-1v2l2 1h-5v-4l-4 1-3-3-1-4-9 1v2h6l-1 4 2 1-1-3 3-1v2l10 6 4 6-1-3 5 2 3 4v3l-4-2v-2h-6l-2-1v-2h-2l4 4 5 1-4 2 9 2 1 2 3 1 1 4-9-3 3-1v-2h-8l-4-3-5-2-5-5h-2l-5-2 6 4v2l3 1 1 4-5-2-3-2v-3l-6 1-3-3 2 4 3 1 4 6v3l-3-1-5-5-3-1-2-4-3-3-4-1v-2l-5-1 1-3-6-5-1-5 2-4-4-1-6-3v-2l6-2v2l3 1v2l7 1v-2h3l1-2-4 1-3-5-2-5-3-2-4-2v-3l-4 2 2 2 5 2-1 2h-3l5 3 1-2 6 9-5-1-1-3-5-2-7-6v-2l-2-1 4-5 2-1-7-3 1-3-5-1 4-1v-2l-3 1-3-2 5-3 4 2 1 5 4-2-1 4 5 2h2l1-2-5-1v-2l9 2-1-2-6-1v-2l-5 1-2-1v-2h-3v-2l-2-1v-3l4 2 7 4 1-2 7 3-1-2-12-3-2-3 9-2h5z" fill="#7F8080"/>
<path transform="translate(1331,337)" d="m0 0h33l15 2 12 2 5 2 12 3 15 6 16 8 4 3 7 4 16 12 12 11v3l-7-6-5 1-1 6-1 2-5-1-5-4-7-4-7-5-10-4-8-5-7-4-7-2-11-4-5-2-19-4-9-4-8-1-8-4v-3h-8l-1-1-19-1v-3h2v-2z" fill="#F9FAF9"/>
<path transform="translate(1212,447)" d="m0 0 6 2 3 2v3l3 1v3l-6 1-1-2-4-1-1 4-3 1 1 3h8l-1 5-4 5-3-2h-3l-1 3h6l-1 7 4 1-2 4v6l-2 1-1 4-2 2 3 5 3 2-1 6-4 4 2 7 1 6 1 5-1 3h-2l1 4-1 4v6l-4-2h-5l2 4 7 2v6l-2 3h-3l1 4-3 1-2-1v3h-5v-2l-6 1-2-3v-5l5 2 4-1 1-1 1-7-3 1-1 2h-2v-2l-4-1-3-9v-6h2l1 2 3 1 1-4-2-6-3-6 2-9 2-6-3-5 1-7 4-2 1-10 2-5-1-10h6v-11l-3-2 1-3h3l3-9z" fill="#ADADAD"/>
<path transform="translate(1044,462)" d="m0 0h68l1 1 17 2 10 4-5 4-7 4-10 3-8 1-17-1h-22l-18 1-14 1-3-2-1-4-5-2h-2l-3 6h-2l1-5 7-8 8-4z" fill="#FCD94E"/>
<path transform="translate(1352,386)" d="m0 0 22 1 13 3-2 2h-9l-7-2-7 1-3-1-7 1-4 2-5-1-9 1-10 3-5 4-12 1v2h-2v2h-2l-1 4h-2v2h6l2 1v-2l8-2h8l4-2 13 2 18 1 20 4 18 5 10 6 6 3 12 9v2l4 2-1 2-8-6v-2l-4-1-10-4-16-8-14-4-15-3h-25l-14 1-24 6-8 5h-2v-2l-10 5-1 1h-6l-1 3-10 2-1-2 3-5h3l2-4 4-2 2-5h2l2-4 4-4h3l1-3h2v-2l17-8 4-3 5-2 9-1 5-1 8-1 3-1h13z" fill="#555456"/>
<path transform="translate(1135,756)" d="m0 0 1 3-1 2 3-1 4 1 1-4h2l1 2h7v-3l4 1-3 3 1 6-2 7 3-1-1-3h4l-3-4v-5l3 1 2 4v3l9-2 1 3h-3l-1 2h4v2h2v2l-7-1 1 2 11 2 1 4h9l1 5h3l-1 4-4-2v-3l-7-2-1 7-6-1-5-3 1 3 6 1v4h-5v2l2 1h-3l1 7h-6l-1-3-10 1v2l-7 1-5-3v-2l-4-1-5-5v-2h2l1-3h5l-2-4 1-3-7-2 1-3 5 3v-3l-4-1 2-2h5v-2l-6-1 3-5v-2l-3-1v3l-3-1 1-3-3-2 1-4 3 1z" fill="#808080"/>
<path transform="translate(1221,570)" d="m0 0h1v154h-15l-5-1 2-6h-3l1-5 3-1-1-7 3 1v-2h2l-1-5-1-3h2v-10l1-3-1-4 1-6v-30l-1-3 3-1 1 3 2 1-1 4 2 1 1-7-1-3 2-1v-32l-2-2h3v-6l-3-1 2-1v-16l2-3z" fill="#6C6B6D"/>
<path transform="translate(1387,391)" d="m0 0 10 1 10 3 12 7 6 3 16 13v2l4 2 10 11 2 4v3l3 1 2 3v3l3 1 6 11 7 13 3 10 2 3 1 8 3 8v77l1 7v21l1 29v32l2 23v21l2 12-7 1v-11l-1-21v-15l-1-22v-18l-2-46v-20l-1-11v-19l1-13v-8l-1-5 2-12-1-9-6-18-10-18v-3h-2l-6-11-4-5-1-3-4-4-2-4-5-5-4-3v-2l-4-1-4-5-7-5-10-5-4-3-9-3-5-1-7-2z" fill="#565557"/>
<path transform="translate(1448,470)" d="m0 0 4 2 6 12v2l3 1 4 8 3 11 2 18v129l-1 44-1 26-2-2-2 2-1-202-1-12-2-9v-5h-2l-4-12-6-11z" fill="#646365"/>
<path transform="translate(1109,787)" d="m0 0h3l1 4v253l-1 99 2 10 2 5-3-1-4-8-1-3 1-324h2l-1-9-1-11z" fill="#A7A7A7"/>
<path transform="translate(1288,894)" d="m0 0h2l1 11h2l3 9 7 11 8 9 6 4 9 5 1 1 1 119 5 7 8 4h22l12-2 4 1-1 4-1 1-17 2-5 1h-16l-5-2-8-10-2-7-3-52v-13l1-16 1-6-1-6-6-12v-4l3-3-4-4-7-6-5-5-7-8-6-12-2-8z" fill="#929393"/>
<path transform="translate(1465,724)" d="m0 0h106l10 5 9 9 5 8v32h-1l-1-20-8-14-8-8-6-4v-2l-10-1h-175l-81-1-2-1v-2z" fill="#FCFDFB"/>
<path transform="translate(1332,55)" d="m0 0 6 1 14 7 4 4v2l5 1 6 3 4 4 7 4 2 4 5 1 3 2v2l6 2v2l4 2 2 2-4 1-2-1v-2l-4 2 1 3-10 2-2 1v-4l2-2-7-2-3 2-5-2-7-1 1-4-5-1v-2l-3 1-1-1h-6l-2-3-9-1-1-4 11-1 5-2 1-4h-2v-2h-5v2l-4-2 1-7-8-4v-2l-4-1z" fill="#252428"/>
<path transform="translate(1161,626)" d="m0 0 5 1 1 2v7h2l1 3-2 2-5-1v3l4 1 2 4v8l1 10-1 3 2 9-1 3 1 8 1 24 1 7 2 3h-18v-7l1-5v-41l1-22 1-6v-15z" fill="#434248"/>
<path transform="translate(1519,273)" d="m0 0h1v135h-1l-1-58-5 3-5-1-2-2v-9l4-2 1-3h-5l-1 4-5-2-3 1v-2l-2-1 4-5 2-4 5-2-5-10 2-4 9-2 1-2v-4l-8 1h-4-3l2 6-1 3-4-1-2-6v-5l3 1v-3l2-2h7l4-1h7l2 3z" fill="#2F2E32"/>
<path transform="translate(1383,403)" d="m0 0 13 1 15 4 14 7 3 2 5 4v2l5 2 5 5 10 13 5 7 3 5 6 9v2h2l1 6 2 1 1 5-2 1v-2h-2l-2-3v-4h-2l-1-4h-2l-1-3-5-5-3-4v-2h-2v-2l-4-2-1-3h-2v-2l-5-2-11-7v-2l-3-1v-2l-5-1-2-1v-2l-4-1-14-9-10-5v-2l-7-2z" fill="#3A373A"/>
<path transform="translate(1120,740)" d="m0 0 1 2h-2l3 3 5 2-1-4 4-2v3l2 1v2l2 1v3l4-2 3 2-1 4h2l-1 4-6 2v-3h-4v3l3 2-1 3 2 1v-3l4 1-2 4-3 5h-3l-3-4-5-13h-3l-2 1-1 7h2v-3l3 1 1 4h2v2h-2l-1 3h-2v-3l-5-1-1 3 3 1v2l-1 1 5 5-1-5 6-3h2v3h-5l1 5-6 2-4-5 1 6h-2l1 5-2 3v-4h-3l2 29v6h-2v40h-1v-104l2-12 2-2v4h4l2-7z" fill="#8C8D8D"/>
<path transform="translate(379,464)" d="m0 0h221l90 1h39l-3 2-6 1h-105l-171-1h-71l-17 1v-1l12-2z" fill="#0E5D86"/>
<path transform="translate(1140,1164)" d="m0 0 15 1 1 3h8l4-2 2 1v2l12-1h70l22-1 7 1 5-1 5 1h237l1 2h-387z" fill="#3E3C41"/>
<path transform="translate(1494,511)" d="m0 0 2 3v13l1 14-1 17 1 22 1 2v11l1 3-2 6v13l2 14v14l1 12 1 9v11l1 4v10l1 7-2 1-3-15v-11l-2-21-2-14v-17l-1-4v-15l1-6-2-29 1-17v-21l-1-6z" fill="#7D7D7D"/>
<path transform="translate(501,845)" d="m0 0h1l-1 102-1 161v12h-1l-1-7v-192l1-53 1-19z" fill="#635632"/>
<path transform="translate(625,726)" d="m0 0h89l138 1-3 2-21 2h-54l-36-1-33-2-80-1z" fill="#E8B114"/>
<path transform="translate(1162,843)" d="m0 0 1 2 3 1v2l7 1v-2l5 2 3 4h-2v4l6 2v3l-4-2-5-3-1-2-1 4h-2l9 4h6v-2h2v2l5 1 1 5v2l5 4 3 2 1 4-5-2-3-2v-3l-6 1-3-3 2 4 3 1 4 6v3l-3-1-5-5-3-1-2-4-3-3-4-1v-2l-5-1 1-3-6-5-1-5 2-4-4-1-6-3v-2z" fill="#706F71"/>
<path transform="translate(1139,724)" d="m0 0 78 1 1 2-10 2-1 1h-72l-8 2-6 4-4 5-4 7-1-4 6-11 7-5 8-3z" fill="#F0EFE9"/>
<path transform="translate(1110,896)" d="m0 0h1l1 5v118l-1 88h-1l-1-37v-112z" fill="#F3F2EC"/>
<path transform="translate(1227,856)" d="m0 0 6 5-3 1 7 4 3 5v2h2v3l3 1v3h-2v-3l-8-1h-2l3 5 3 4 4 2h-2v2l3 1v2l8 4 1 3h2v2l4 1 7 3 3 1v4l5 2 2 4-5-2-3-3v-2l-4-1v3l3 1-3 1-2-5-4-1-5-5-6-3v-2l-4-1-3-4-1-1-1-3-4-2-1-4-5-1 2-1-2-2-2-1v-6l-1-4-4-2v-2h2l-1-3h6z" fill="#6E6D6E"/>
<path transform="translate(1221,570)" d="m0 0h1v59l-1 14-1 1-1 7-3 1 3 2v11l-4 4-4-4-1-14v-9l-1-3 3-1 1 3 2 1-1 4 2 1 1-7-1-3 2-1v-32l-2-2h3v-6l-3-1 2-1v-16l2-3z" fill="#6E6D6F"/>
<path transform="translate(673,458)" d="m0 0h11l4 1 2-1v2l4-1-1 3 18 2v1h-45l-53-1 2-2 13-1 1-2h38z" fill="#0C0F14"/>
<path transform="translate(1348,820)" d="m0 0h30l12 4 11 7 5 5-1 4-3 3-7-6-10-6-15-6-6-1h-20l-18 7-1-2 9-3v-2l9-1v-2z" fill="#69686A"/>
<path transform="translate(704,184)" d="m0 0h63l35 3 8 1v1h-10l-22-2-26-1h-27l-40 2-40 4-34 7-32 9-21 8-15 7-2-1 15-8 21-8 29-8 27-6 26-4 32-3z" fill="#0E5E87"/>
<path transform="translate(283,1475)" d="m0 0h59l6 2 73 1v1h-165v-3z" fill="#37363A"/>
<path transform="translate(1135,756)" d="m0 0 1 3-1 2 3-1 4 1 1-4h2l1 2h7v-3l4 1-3 3 1 6-2 7h2l-2 6-6 1v-2h-4l-1 3-4-1v-2l-4-1 2-2h5v-2l-6-1 3-5v-2l-3-1v3l-3-1 1-3-3-2 1-4 3 1z" fill="#828282"/>
<path transform="translate(1529,645)" d="m0 0h1l1 13 1 65-6 1h-9l5-5 3-10 1-8 1-38z" fill="#7D7D7D"/>
<path transform="translate(1288,894)" d="m0 0h2l1 11h2l3 9 7 11 8 9 6 4 9 5v6l-5-1-16-10-11-14-5-12-1-5z" fill="#F2F2F0"/>
<path transform="translate(1109,787)" d="m0 0h3l1 4v46l-1 57-3-1v-71h2l-1-9-1-11z" fill="#CAC9C7"/>
<path transform="translate(1448,470)" d="m0 0 4 2 8 16 4 13 2 7v9l1 8v190h-1l-1-183-1-13-4-19v-5h-2l-4-12-6-11z" fill="#909191"/>
<path transform="translate(1388,728)" d="m0 0h173l10 2-4 1h-108l-72-1z" fill="#F2F1EB"/>
<path transform="translate(1194,831)" d="m0 0 4 2h3l1 3-1 2 6 2 1 2 5 2v2h-3l1 7 2 1-1 2 3 2 2-1v3l3-1 1 2-2 5-1-3-4-1v2l2 1h-5v-4l-4 1-3-3-1-8-4-1-2-3-3-1 1-2 2 1v-2l-4-1-1-3h3v3h3l-4-6 2-1v-2h-2z" fill="#7A7A7B"/>
<path transform="translate(1140,1164)" d="m0 0 15 1 1 3h8l4-2 2 1v2l12-1h70l22-1 7 1 5-1 5 1h6l-4 2h-151z" fill="#434248"/>
<path transform="translate(1126,782)" d="m0 0 5 1-2 1 1 2 3 1v2h-6l1 5-4 2v4l-5 1 1 3-6 1v2l3 1-1 5 2 4-4-1v5h2l3 3 1-3 4 1-1 3h-5v2h3v3l-6 1v5l2 4-3 1 1 3 1 5-2 2-1 37h-1v-51l1-39 5-2h4v-2h2z" fill="#8F9090"/>
<path transform="translate(1326,1060)" d="m0 0 2 3 5 7 8 4h22l12-2 4 1-1 4-1 1-17 2-5 1h-16l-5-2-8-10z" fill="#F4F5F3"/>
<path transform="translate(1169,801)" d="m0 0h3l2 10-1 2 5-1 1-2-4-1 3-1 5 2v5l1 3-6-1 3 3 4 2-3 4-3-1 1-4-4-1-1-1h-5l-7-2v-2l-5 1-2-1v-2h-3v-2l-2-1v-3l4 2 7 4 1-2 7 3-1-2-12-3-2-3 9-2h5z" fill="#79797A"/>
<path transform="translate(1149,812)" d="m0 0 5 2 1 5 4-2-1 4 5 2h2l1-2h8l1 2h-2v3l-4 2-1 2h2v-2h3v3l3 1-4 1-6-2-1-1h-6l-2 1 2 2 5 2-1 2h-3l5 3 1-2 6 9-5-1-1-3-5-2-7-6v-2l-2-1 4-5 2-1-7-3 1-3-5-1 4-1v-2l-3 1-3-2z" fill="#7C7C7C"/>
<path transform="translate(1111,744)" d="m0 0 2 4 1 10-1 1v16l-1 5 3 1v2h-2l1 5-2 3v-4h-3l2 29v6h-2v40h-1v-104l2-12z" fill="#B3B3B3"/>
<path transform="translate(614,1222)" d="m0 0h7l13 3 39 7 20 3 19 2-3 1v2l-11-1-12-1v-2h-13l-14-2-26-5-17-5z" fill="#BB9016"/>
<path transform="translate(1163,573)" d="m0 0 1 3 4 2-2 6-1 2h2l1 12 2 7-2 14-3 1-4-1 2-4 2-3h-2v-3h-2v-10l-1-2v-14l2-9z" fill="#444349"/>
<path transform="translate(36,269)" d="m0 0h1l1 12-1 2h2l-1 3-2-1 1 46-1 203h-1v-252z" fill="#262529"/>
<path transform="translate(1287,394)" d="m0 0 4 2-8 4-1 2-7 1-3 6-3 5h-2l-3 5h-5l-3 1 1 4-7-1 3 3-1 5-3-1-1 7h-2l-1 5-2-8-2-1v-2l6-1 1-4-1-6 4-1 2 1v-5h8l1-5 5-1 2-5 5-3 4-4 8-1z" fill="#7D7D7D"/>
<path transform="translate(1197,422)" d="m0 0 6 1v3l-1 3 3 4-4 1-6 12v6l-5 2 1 7-3 9-2 3-1-3 1-1v-9-4l2-5 5-1-1-4 1-3-1-3 1-2h-3v4h-2v-4l-5 2 2-5 3-1 5 2v-2l-2-1h2v-6z" fill="#7D7D7D"/>
<path transform="translate(1384,956)" d="m0 0h2l1 2 5 2 2 5v4l-2 1 2 8-4 2-1 3h-2l-1 7 2 1-1 1-1 9-2-2z" fill="#7C7C7C"/>
<path transform="translate(1179,853)" d="m0 0 6 2 2 2 3 1 5 4 2 4 7 3 5 4 5 3 5 1-4 2 9 2 1 2 3 1 1 4-9-3 3-1v-2h-8l-4-3-5-2-5-5h-2l-5-4-4-2h4v-2l-5-1v-2h-2v2l-6 1-10-5 4-2-2-1 3-2 1 3 6 4 2-1-6-3z" fill="#7F7F7F"/>
<path transform="translate(1184,849)" d="m0 0 4 2-1 3 8-1v2h-3l1 2 7 1-1 4 2 1-1-3 3-1v2l10 6 4 6-1-3 5 2 3 4v3l-4-2v-2h-6l-2-1v-2h-2l-1 2-8-6-5-2-1-4-3-1v-2l-6-1-2-3-3-2h4z" fill="#706F71"/>
<path transform="translate(7,1009)" d="m0 0h1l1 71h1l1 8-2 2-1 133h-1z" fill="#4D4B4F"/>
<path transform="translate(1143,786)" d="m0 0 6 1v2h7l3 3 2 1v2l-2 1-2 4-5 1v2l-5 1-2-3-5-1 2-3h-5l-3-4h9z" fill="#7A7A7B"/>
<path transform="translate(936,1190)" d="m0 0 7 1-2 1-1 3-8 4-2 3-9 5-10 3-7 2-2-2 7-5 3-1-1-2 6-2 6-3h5v-2h2v-2z" fill="#BB9016"/>
<path transform="translate(1187,669)" d="m0 0 2 3 1 5-1 12 4 3-1 9 1 4h2v5l1 2v10l-3 2h-4l2-4h2v-3l-5-1-2-8 2-1-2-5v-6-3-7l1-4z" fill="#7D7D7D"/>
<path transform="translate(1233,372)" d="m0 0h2l-2 4-10 9-7 5h-2l-2 4-3 3h-2l-2 4-8 7-12 16-3 3 3-9 7-9h2l2-4 9-10 14-13z" fill="#DBDAD6"/>
<path transform="translate(1227,873)" d="m0 0 1 3 5 2 6 7 4 2h-2v2l3 1v2l8 4 1 3h2v2l4 1 7 3 3 1v4l5 2 2 4-5-2-3-3v-2l-4-1v3l3 1-3 1-2-5-4-1-5-5-6-3v-2l-4-1-3-4-1-1-1-3-4-2-1-4-5-1 2-1-2-2-2-1z" fill="#7C7C7C"/>
<path transform="translate(1224,472)" d="m0 0 3 6 2-2-1 6-1 2 3-1 2 1-1 5-5 16-7-2-1-4h3l1-7h-2l2-7v-11z" fill="#7D7D7D"/>
<path transform="translate(1509,1163)" d="m0 0 21 2 20 2v2l-2 1-22 1 2-2h-29l-5-1 2-2z" fill="#585759"/>
<path transform="translate(1219,417)" d="m0 0 5 1 5 2-1 4h7l-1 5-1 3-6 4-5-1-2-2v-3l-4-2 2-3h2z" fill="#AFAFAF"/>
<path transform="translate(1120,740)" d="m0 0 1 2h-2l3 3 5 2-1-4 4-2v3l2 1v2l2 1v3l4-2 3 2-1 4h2l-1 4-3 1-1-5-3-1v2l-2-1-2-2v3h-3v-6l-7 1-2 5h-2v-3l-2-1v-4h2l2-7z" fill="#747374"/>
<path transform="translate(1111,997)" d="m0 0h1v22l-1 88h-1l-1-37v-72z" fill="#EEEDE7"/>
<path transform="translate(1166,465)" d="m0 0 1 3-1 9-2 5h-2l-1 6-2 8-1 16h-1l-1-8-1-2 1-8h-2v-12l-2-4v-3l6 1 1-3 1 7 1-4h2l1-7z" fill="#8C8D8C"/>
<path transform="translate(1211,638)" d="m0 0 2 1v2l2 1-1 4 2 1 2-7 2 3-1 2v6l-3 1 3 2v11l-4 4-4-4-1-14v-9l-1-3z" fill="#7D7D7D"/>
<path transform="translate(1192,1040)" d="m0 0 6 2h3v3l5 1h3v2l5 2 5 5 10 9 9 7 9 5-1 2-12-5v-2l-4-1-4-4-2-1v-2l-4-2-6-5-3-3-5-1-3-3-11-7z" fill="#545355"/>
<path transform="translate(1411,430)" d="m0 0 5 2 4 2 4 4 8 5 3 5 3 3v3l4 1 8 11 2 6-6-3-10-14-15-15-10-8z" fill="#656467"/>
<path transform="translate(1156,760)" d="m0 0 3 1 2 4v3l9-2 1 3h-3l-1 2h4v2h2v2l-7-1 1 2 9 2-2 4-6 3-4-3v-2h3v2l2-1-6-5 1-5-3 1-1 7-4-1-1-4v-3-2h4l-3-4z" fill="#787778"/>
<path transform="translate(1174,826)" d="m0 0 8 4h-2l5 8v2l4 2-4 1v2l-2 1 6-1 2 4h-8l-3 1-2-5 1-1-7-2v-3l-2-1v-3l8-2v-3l-4-1z" fill="#7D7D7D"/>
<path transform="translate(1350,378)" d="m0 0 7 1 4 1 10-1 15 2 9 4 5 1 2 3-6-1h-6v-2l-12-2-1-1-14-1h-6l-5-1-6 3h-3l-1-2-3 2-10-2v2l-2-1 1-4 13 1 2-1 3 1z" fill="#7D7D7D"/>
<path transform="translate(1491,268)" d="m0 0 3 3 1 2 4 1-2 6 9 6-1 4-6 3-1 2-4-1v-9l-2 3-2-6 1-5h-1v-5-1z" fill="#252428"/>
<path transform="translate(1187,872)" d="m0 0 4 1 1 1h4l1 3 8 5-2 1h-1l6 3h8l5 6v2l-5-2v2l-6-2-1-2h3l-5-1 3 4-1 2-5-3-3-5h-4l-3-5-2-5-4-1z" fill="#6B6A6C"/>
<path transform="translate(1109,1070)" d="m0 0h1l1 36h1v37l2 10 2 5-3-1-4-8-1-3z" fill="#A3A3A3"/>
<path transform="translate(1284,59)" d="m0 0 4 1 1 4-4 3 1 2h4l1-5 9 3 1 3 9 2 1 4-10 1v-3l-4-1-2-2-9 1-5-3-1-7z" fill="#252428"/>
<path transform="translate(1383,415)" d="m0 0 8 1 10 4 7 5 5 2 12 9v2l4 2-1 2-8-6v-2l-4-1-10-4-16-8-8-3z" fill="#575659"/>
<path transform="translate(1176,778)" d="m0 0 3 1v3h9l1 5h3l-1 4-4-2v-3l-7-2-1 7-6-1-5-3 1 4h-3v-4l1-2h-5v-4l5 2h3l4-1z" fill="#828282"/>
<path transform="translate(1178,432)" d="m0 0 1 2-3 5-1 4h-2l-1 6-1 3-2 1-2 5-3 14-1 4h-2l-1 5h-1v-9l6-18 8-16 3-5z" fill="#B5B5B5"/>
<path transform="translate(1109,787)" d="m0 0h3l1 4v46h-3v-12l-1-3h2l-1-9-1-11z" fill="#C4C4C2"/>
<path transform="translate(1120,755)" d="m0 0 4 2 5 13 1 2-2 3v-3l-7 3v5l-3-1-4-4 1-2 2 1-3-3 1-4 5 2v3l3-3h2v-2h-2l-2-4-2-1v3h-2v-7l3-1z" fill="#6F6E70"/>
<path transform="translate(552,710)" d="m0 0h8l-5 5-6 3-5 4h-5l-4 3h-2l1-4 2-3h2l1-3 4-3z" fill="#0D0D14"/>
<path transform="translate(1178,444)" d="m0 0 3 2-9 18-3 9-3 10-4 6-3 14h-1v-7l4-14h2l1-5 2-12 5-12 5-5z" fill="#7D7D7D"/>
<path transform="translate(1419,907)" d="m0 0 1 3-4 9-6 9-5 6-8 6-12 8-3 1 2-4 18-14 7-7 6-10z" fill="#A5A5A5"/>
<path transform="translate(1232,410)" d="m0 0 7 1h5l1 5-2 7h-11l-3-9 1-2h2z" fill="#AFAFAF"/>
<path transform="translate(467,842)" d="m0 0 2 4-1 44-1 48h-1v-95z" fill="#0E0D14"/>
<path transform="translate(1194,831)" d="m0 0 4 2h3l1 3-1 2 6 2 1 2 5 2v2l-4-1v2h-3l-2-2-3 3 1 3-4-2-1-2-3-1 1-2 2 1v-2l-4-1-1-3h3v3h3l-4-6 2-1v-2h-2z" fill="#767576"/>
<path transform="translate(1185,866)" d="m0 0 6 3v2l5 1 4 3 3 2 1 4-5-2-3-2v-3l-6 1-3-3 2 4 3 1 4 6v3l-3-1-5-5-3-1-2-4-3-3-4-1v-2l9 1-1-3z" fill="#808080"/>
<path transform="translate(1112,1044)" d="m0 0h1v14l3-1 2 3v3l3 1-4 2-3-1-1 67-1 11h-1z" fill="#777677"/>
<path transform="translate(1132,778)" d="m0 0 6 2h4l1-2h4v2l7-1 1 3-8 3-4 1 1 7-4 1-6-1 1-3h5l-2-4 1-3-7-2z" fill="#818181"/>
<path transform="translate(478,1477)" d="m0 0h26l2 2 36 1v1h-46l-48-1v-1l30-1z" fill="#3F3E42"/>
<path transform="translate(1140,1164)" d="m0 0 15 1 1 3h8l4-2 2 1v2l12-1h12l1 2h-53z" fill="#444349"/>
<path transform="translate(1571,731)" d="m0 0 5 2 11 8 4 1 4 4v32h-1l-1-20-8-14-8-8-6-4z" fill="#F0EFE9"/>
<path transform="translate(1518,252)" d="m0 0h1v12l-2 4-4 4-5-6 1-7-1-4 6-1 3 3z" fill="#28272B"/>
<path transform="translate(1331,70)" d="m0 0 5 2 1 4-4-1v5h-3l-2 3-5 1-9-2v-2l5-1 2-6h6l-2 1 1 4 4-1-2-5z" fill="#262529"/>
<path transform="translate(1108,758)" d="m0 0h1l1 44 1 17v3h-2v40h-1z" fill="#949595"/>
<path transform="translate(1129,752)" d="m0 0 4 2h1l4 1v5l-3 1v-3h-4v3l3 2-1 3 2 1v-3l4 1-2 4-3 5h-3l-3-4v-3h3l-3-4v-2h-2l1-4 2-1z" fill="#909191"/>
<path transform="translate(753,987)" d="m0 0 8 5 3 1 60 1v1l-30 1v1l-22 1-2-1v-2h-8l-6-3-3-3z" fill="#FDDA4E"/>
<path transform="translate(1455,420)" d="m0 0 7 6 3 6 6 5 3 6 4 7 2 8-5-4-6-13-8-7-3-7-2-2z" fill="#7D7D7D"/>
<path transform="translate(1163,544)" d="m0 0 1 3 4 2-2 9v4h-2v3l3 1-2 5h-4v-18l-1-4z" fill="#444349"/>
<path transform="translate(234,609)" d="m0 0h1l-1 10-6 37-2 14v6l-3 2 1-15 5-31z" fill="#0E5F87"/>
<path transform="translate(1161,829)" d="m0 0 5 1 6 2h3l-2-2h5l1 4-9 1v3l3 1-1 3 8 1-1 4 1 3 2-2 3 1v4l-5-1-4-5 1-2-4 1-3-5-2-5-3-2-4-2z" fill="#7F7F7F"/>
<path transform="translate(1259,356)" d="m0 0 3 1-2 5-3-1-1 4-4 1-2-1-2 4h-4l-2 3-6 2 2-4 5-5z" fill="#DEDDD8"/>
<path transform="translate(1212,432)" d="m0 0h3v2l6 2 1 3 4 1 4 5v2l-8 1-3-3-5-6z" fill="#AFAFAF"/>
<path transform="translate(1115,1031)" d="m0 0 5 2 3 4-1 4-1 5-1 2h-5v-3l-2-5v-6z" fill="#6B6A6C"/>
<path transform="translate(1201,859)" d="m0 0h2v2l10 6 4 6-1-3 5 2 3 4v3l-4-2v-2h-6l-2-1v-2l-5-1-1-3-3-1v-2l-5-1 3-1-1-3z" fill="#7C7C7C"/>
<path transform="translate(1180,534)" d="m0 0 5 10 2 13-3-1v-4l-2 1-1 3-3-1-1-4 1-1v-6l-2-3 1-2h2z" fill="#7D7D7D"/>
<path transform="translate(1317,960)" d="m0 0 4 5 2 4 1 10-1 2-1 17v12h-1l-1-11v-15l-2-3v-3h2l-1-7-2-2z" fill="#7D7D7D"/>
<path transform="translate(1007,631)" d="m0 0h2l-2 9-8 17-3 4h-2l-2 4-5 3 2-4 8-12 8-16z" fill="#EDCB48"/>
<path transform="translate(992,38)" d="m0 0h8l5 1 10-1v4l-7 2-5-2-7 1-1-1v2h-7l-1-3h2v-2z" fill="#252428"/>
<path transform="translate(1143,786)" d="m0 0 6 1v2h7l3 3 2 1v2l-5-1-1-2-7-2-2-1-1 5-1 2 4 2h-2l3 3 4-1-1 3-5 1-2-3-5-1 2-3h-5l-3-4h9z" fill="#6C6B6D"/>
<path transform="translate(1135,756)" d="m0 0 1 3-1 2 3-1 4 2v8h4l-2 4-9-2 3-5v-2l-3-1v3l-3-1 1-3-3-2 1-4 3 1z" fill="#818181"/>
<path transform="translate(514,1477)" d="m0 0h27l2 2-2 1h-43v-1z" fill="#1F1E23"/>
<path transform="translate(1179,853)" d="m0 0 6 2 2 2 3 1 5 5h-6v-2h-2v2l-6 1-10-5 4-2-2-1 3-2 1 3 6 4 2-1-6-3z" fill="#7C7C7C"/>
<path transform="translate(1199,613)" d="m0 0 6 3-1 9 1 5h-6l-1-5-3-6v-3l3-1z" fill="#AFAFAF"/>
<path transform="translate(1221,570)" d="m0 0h1v29l-1 4-3 1-2-2h3v-6l-3-1 2-1v-16l2-3z" fill="#777778"/>
<path transform="translate(1218,1055)" d="m0 0 8 6 10 9 11 6-1 2-12-5v-2l-4-1-4-4-2-1v-2l-4-2-4-5z" fill="#565557"/>
<path transform="translate(1195,725)" d="m0 0h22l1 2-10 2-24-1-5-1v-1z" fill="#FCFDFC"/>
<path transform="translate(1221,687)" d="m0 0h1v36h-4l1-11-1-2 1-12v-4h2z" fill="#565557"/>
<path transform="translate(40,243)" d="m0 0 3 1 2-1-2 14-1 5-2 3-1-4-1 8h-1v-10z" fill="#201F24"/>
<path transform="translate(1216,1045)" d="m0 0 5 2 2 4 3 1v2l5 2 7 4 3 2v2h5v2h-5l-7-4v-2l-4-1-9-6-5-5z" fill="#565557"/>
<path transform="translate(1177,808)" d="m0 0 6 2v5l1 3-6-1 3 3 4 2-3 4-3-1 1-4-8-2v-2l2-1v-3l4-1 1-2-4-1z" fill="#727172"/>
<path transform="translate(1188,803)" d="m0 0 12 2 1-2 2 1-2 4-9-1v2h-3v2l6-2 2 1v3l-10 2 1-3-2-1 1-5z" fill="#7D7D7D"/>
<path transform="translate(1126,782)" d="m0 0 5 1-2 1 1 2 3 1v2h-6l1 5-4 2v4l-3 1-3-1v3l-4 1v-5l4-2 4-1v-2h2z" fill="#818282"/>
<path transform="translate(1410,391)" d="m0 0 6 1v2l5 1 6 2 8 5 7 4-3 1-5-3h-3l-4-2-4-1-8-6h-3z" fill="#7D7D7D"/>
<path transform="translate(601,1476)" d="m0 0h13l3 1h12l4 2-23 1-25-1 4-2h10z" fill="#0E0D14"/>
<path transform="translate(1448,470)" d="m0 0 4 2 8 16 3 9v7l-3-4v-5h-2l-4-12-6-11z" fill="#969696"/>
<path transform="translate(1112,888)" d="m0 0h1v14l-2-1-1 57h-1v-65h2z" fill="#ACACAC"/>
<path transform="translate(1292,870)" d="m0 0 1 4-1 4v27l-2-4v-7h-2v12h-1v-21z" fill="#A09FA0"/>
<path transform="translate(1170,835)" d="m0 0h6v2l-2 1 1 2 6 2 1 1 1-2h5l1 2h-4v2l-2 1 6-1 2 4h-8l-3 1-2-5 1-1-7-2v-3l-2-1z" fill="#6C6B6D"/>
<path transform="translate(1197,1055)" d="m0 0 7 2 9 6 1 4 5 2-2 2-4-2v-2l-5-1-8-6z" fill="#6C6B6D"/>
<path transform="translate(1406,837)" d="m0 0 4 4 5 9-1 3-3-2h-3l-6-8 1-2z" fill="#7B7B7B"/>
<path transform="translate(1176,729)" d="m0 0 36 1-1 3-16-1h-13l-1 4-1-2-10-3v-1z" fill="#AFAFAF"/>
<path transform="translate(1183,564)" d="m0 0h1v7l4-1 1 5-4 1 1 8-1 8-3-4v-5l2-5h-2l-1-10h2z" fill="#7B7B7B"/>
<path transform="translate(1166,1076)" d="m0 0 3 1v2l7 2 8 6 3 2v2l-4 1-5-4-7-4v-3l-5-1z" fill="#6C6B6D"/>
<path transform="translate(1234,900)" d="m0 0 7 6 8 8v3l2 1-3 1-3-3v-3l-7-2-5-8z" fill="#7D7D7D"/>
<path transform="translate(1127,749)" d="m0 0 1 2-1 5 2 1-2 1-1 3h2l3 4v2l-4-1-4-9h-3l-3 1 2-5 1-2z" fill="#808080"/>
<path transform="translate(1436,452)" d="m0 0h2v2l4 1 8 11 2 6-6-3-10-14z" fill="#7B7B7C"/>
<path transform="translate(1176,776)" d="m0 0 5 1 3 2v2l6-1 6 2v3h2v2l-4-1-5 1-1-5-10 1v-4l-2-1z" fill="#7A797A"/>
<path transform="translate(1349,821)" d="m0 0h13l9 2 1 2-8-1h-20l-18 7-1-2 9-3v-2z" fill="#444246"/>
<path transform="translate(1156,760)" d="m0 0 3 1 3 7-1 9-1 2-4-1-1-4v-3-2h4l-3-4z" fill="#767576"/>
<path transform="translate(1482,463)" d="m0 0 4 5 2 6 1 1 3 16-1 10-2-2v-6-4l-4-14v-4h-2l-1-2z" fill="#7D7D7D"/>
<path transform="translate(1034,39)" d="m0 0h19l4 2v2h-19v-2h-2v2l-5-1z" fill="#262529"/>
<path transform="translate(1112,837)" d="m0 0 5 2-3 2 1 3 1 5-2 2-1 37h-1z" fill="#909191"/>
<path transform="translate(1167,821)" d="m0 0h7l1 2h-2v3l-4 2-1 2h2v-2h3v3l3 1-4 1-6-2-5-2 1-2h4v-2h5v-2l-4-1z" fill="#6C6C6D"/>
<path transform="translate(1248,878)" d="m0 0h2l3 5 4 4v3l4 1 3 2-1 2-6-3-3 1-4-5-1-3h2v2h3l-4-3-7-1 3-2 2-2z" fill="#6C6B6D"/>
<path transform="translate(1162,843)" d="m0 0 1 2 3 1v2l7 1v-2l3 1 1 4-4-1v2l-9-2-4-3-3-1v-2z" fill="#7E7E7E"/>
<path transform="translate(1132,793)" d="m0 0 6 3 5 1-2 2 5 2 1 2h5l1-2 1 2-3 3h-5l-5-3v-2l-4-1-5-5z" fill="#7E7E7E"/>
<path transform="translate(1143,741)" d="m0 0h2l1 6-1 4 4-2 4 4h-4v3l-4-1-5-6 2-4-2-1z" fill="#797979"/>
<path transform="translate(1207,572)" d="m0 0 3 1v3l-5 1-1 7-4 2-2-5 1-5h5v-2h3z" fill="#AFAFAF"/>
<path transform="translate(1513,439)" d="m0 0h2l3 6 2-1 5 17 1 6h-2l-5-14-6-12z" fill="#BFBFBC"/>
<path transform="translate(1114,821)" d="m0 0h2l3 3 1-3 4 1-1 3h-5v2h3v3l-6 1v5l2 3-4-1v-9l1-5z" fill="#808080"/>
<path transform="translate(1113,767)" d="m0 0 1 4 3 1v2l-1 1 5 5-1-5 6-3h2v3h-5l1 5-6 2-4-5-2 3v-10z" fill="#8C8D8D"/>
<path transform="translate(495,761)" d="m0 0 4 1-1 5-4 7h-5l2-7z" fill="#0D0D14"/>
<path transform="translate(1181,480)" d="m0 0 4 1 3 1 1-2-1 4h-2v11l-2 8-2-4 1-4-4-1 1-3 4 1-1-4v-4h-2z" fill="#7D7D7D"/>
<path transform="translate(1096,1477)" d="m0 0 34 1v1l-10 1h-23z" fill="#57565A"/>
<path transform="translate(1144,761)" d="m0 0h6l3 5h-4l-2-1h-4v3l6-1 1 5-8-2v-8z" fill="#909191"/>
<path transform="translate(996,550)" d="m0 0h7l1 6-3 6-3-1z" fill="#0C1015"/>
<path transform="translate(1199,881)" d="m0 0 5 1v-1h5v2h-2v2l6-2h6l-2 1 1 2 3 1-2 4-3-4h-8l-8-4z" fill="#7D7D7D"/>
<path transform="translate(1174,770)" d="m0 0 4 1-1 2h3v-2h6l2 5 6 1 1 3-9-1-2-1v-4l-2-1-1 3-7-2z" fill="#7A7A7A"/>
<path transform="translate(1309,383)" d="m0 0 6 1 2-1-1 4-5-2-4 4-8 1-5 3-2 2v-4h2l1-3 9-2 2-2z" fill="#7D7D7D"/>
<path transform="translate(1348,820)" d="m0 0h30l4 2-17 1-3-1h-19v-1z" fill="#747475"/>
<path transform="translate(1210,665)" d="m0 0h1l1 6 3 3v3h2v5h-4l-1-2-2 2-1-4 1-6z" fill="#7D7D7D"/>
<path transform="translate(1111,744)" d="m0 0 2 4 1 10-3 6-2-2v-12z" fill="#ACACAC"/>
<path transform="translate(1120,740)" d="m0 0 1 2h-2l3 3 4 2h-5v2h-2l1 4-2 3h-2v-3l-2-1v-4h2l2-7z" fill="#7C7C7C"/>
<path transform="translate(1186,649)" d="m0 0 4 1-2 8 4 4v3h-4l-1 3-1-1-1-15z" fill="#7B7B7B"/>
<path transform="translate(1187,861)" d="m0 0h2v2l5 1 1 5-1 2h-3v-2l-4-1h-3l-1-4 4-1z" fill="#6F6E70"/>
<path transform="translate(1161,818)" d="m0 0 9 1 6-1 2 3-1 3-3-2-12-1zm12 5h2v7h-2v-2h-3v2h-2l1-3 4-1z" fill="#858686"/>
<path transform="translate(1202,795)" d="m0 0 7 1 1 2-1 2 3 1 2 5-4-1-5-1h-4l-1-3 3-1 5 2v-3l-5-1z" fill="#909191"/>
<path transform="translate(1162,781)" d="m0 0 5 2h3l4-1v2l-2 1 3 2v3l-5-2-2-1 1 4h-3v-4l1-2h-5z" fill="#8C8C8C"/>
<path transform="translate(1157,579)" d="m0 0 2 1v11l-1 15-2 1v-27z" fill="#6C6B6D"/>
<path transform="translate(1116,783)" d="m0 0h2l1 3 4 2-4 2-2 4-4 1v-9h2z" fill="#838383"/>
<path transform="translate(1193,869)" d="m0 0 5 1h3l2 2-1 1 6 5-2 3-3-1v-3l-6-1 1-2z" fill="#6B6A6C"/>
<path transform="translate(1206,708)" d="m0 0 3 1-1 6h-2l1 4-1 4-4-1 2-5h-3l1-5 3-1z" fill="#7D7D7D"/>
<path transform="translate(1135,764)" d="m0 0 4 1-2 4-3 5h-3l-3-4v-3h7z" fill="#898989"/>
<path transform="translate(1487,242)" d="m0 0 3 4 2 12v5l-1 3h-2l-1-10v-6l-2-6z" fill="#252428"/>
<path transform="translate(717,1237)" d="m0 0 13 2h13l1 2h-28l-4-3z" fill="#BE9216"/>
<path transform="translate(7,1076)" d="m0 0 3 4 1 8-2 2-1 26h-1z" fill="#262529"/>
<path transform="translate(1169,766)" d="m0 0 2 1v2h-3l-1 2h4v2h2v2h-7l-3 1 1-5h-2v-3z" fill="#7B7B7B"/>
<path transform="translate(1170,874)" d="m0 0 9 2 7 5 2 4-4 1-5-5v-2l-9-3z" fill="#7D7D7D"/>
<path transform="translate(1153,756)" d="m0 0 4 1-3 3 1 6-2 4h-2l1-5-2-3h-8l1-5h2l1 2h7z" fill="#7B7B7B"/>
<path transform="translate(1178,432)" d="m0 0 1 2-3 5-1 4h-2l-1 6-1 3-3 1 2-10 6-10z" fill="#C6C6C3"/>
<path transform="translate(1111,796)" d="m0 0h1v29h-2l-1-3h2l-1-9-1-13z" fill="#F2F1EB"/>
<path transform="translate(1143,778)" d="m0 0h4v2l7-1 1 3-9 2v-2h-3v2l-3-1v-2z" fill="#747374"/>
<path transform="translate(1136,749)" d="m0 0 5 2-1 4h2l-1 4-3 1-1-5-3-1v2l-2-1 2-4z" fill="#797879"/>
<path transform="translate(1201,859)" d="m0 0h2v2l8 5-1 3-7-2v-2l-5-1 3-1-1-3z" fill="#7D7D7D"/>
<path transform="translate(1135,756)" d="m0 0 1 3-1 2 3-1 1 3h2v3l-6-2v3l-3-1 1-3-3-2 1-4 3 1z" fill="#767677"/>
<path transform="translate(255,535)" d="m0 0 2 4-3 5-2 9-5 4 1-7z" fill="#0C1015"/>
<path transform="translate(1199,886)" d="m0 0 4 2 1 4 5 2 4 2v3h-2v-3h-5v-2l-4-1-5-4v-2z" fill="#7C7C7C"/>
<path transform="translate(1241,897)" d="m0 0 3 1v3l4 2 6 7-2 1-7-4-3-5z" fill="#7C7C7C"/>
<path transform="translate(1231,863)" d="m0 0 6 3 3 5v2h2v3l3 1v3h-2v-3h-4l-2-4-6-8z" fill="#6C6B6D"/>
<path transform="translate(1235,479)" d="m0 0 1 3-6 16-2 4-1-4 4-11 1-5h2z" fill="#888989"/>
<path transform="translate(1301,70)" d="m0 0 9 2 1 4-10 1z" fill="#262529"/>
<path transform="translate(1010,38)" d="m0 0h5v4l-7 2-5-2v-2z" fill="#262529"/>
<path transform="translate(1195,408)" d="m0 0v3l-10 13-3 3 3-9 7-9z" fill="#D2D1CD"/>
<path transform="translate(1070,38)" d="m0 0 11 3-1 2h-13l-1-4z" fill="#262529"/>
<path transform="translate(1170,753)" d="m0 0h3l5 13v2l-4-1-3-1-1-3h4l-1-3-4-4z" fill="#7D7D7D"/>
<path transform="translate(994,581)" d="m0 0 2 1v10l-2 4-3-3 1-6z" fill="#0C1015"/>
<path transform="translate(512,243)" d="m0 0 1 2-10 14-2 4h-2l2-5 4-8z" fill="#0F1217"/>
<path transform="translate(1174,826)" d="m0 0 8 4h-2l5 8-1 2-5-2v-2h-2l-1-2 2-1v-3l-4-1z" fill="#6C6B6D"/>
<path transform="translate(1169,445)" d="m0 0 1 4-3 9-1 7-4 1 1-7z" fill="#AAA9A9"/>
<path transform="translate(1208,1081)" d="m0 0 8 1v2l5 2-2 1v2l-6-2-3-2v-2h-2z" fill="#6C6B6D"/>
<path transform="translate(1194,831)" d="m0 0 4 2h3l1 3-1 2 6 2-2 1-6-2-1 2-4-5 2-1v-2h-2z" fill="#747374"/>
<path transform="translate(1161,815)" d="m0 0h2v2h6l1 3-9-2 1 2 4 1-2 4-6-4 1-5z" fill="#6D6C6E"/>
<path transform="translate(1476,203)" d="m0 0 3 2 3 7v6l-4-3-3-8z" fill="#252428"/>
<path transform="translate(1214,886)" d="m0 0 4 2 3 4v2l-5-2v2l-6-2-1-2h3z" fill="#6A696B"/>
<path transform="translate(1211,902)" d="m0 0h2v3l2 1v2l-1 1-3 2-4-1v-5h2v-2z" fill="#6B6A6C"/>
<path transform="translate(1157,835)" d="m0 0 8 5 1-2 6 9-5-1-1-3-5-2-4-4z" fill="#7D7D7D"/>
<path transform="translate(1173,802)" d="m0 0 3 1 2 5-1 1 2 1-1 3h-5z" fill="#858585"/>
<path transform="translate(1233,443)" d="m0 0 9 1-1 2-4 1-1 7h-2l-1 5-1-3 1-3h2z" fill="#7D7D7D"/>
<path transform="translate(1175,843)" d="m0 0h5l-1 4 1 3 2-2 3 1v4l-5-1-4-5 1-2-4 1-1-2z" fill="#7D7D7D"/>
<path transform="translate(1170,808)" d="m0 0 1 3h2l2 6h-3v2l-4-2-1-3h3l-1-5z" fill="#808080"/>
<path transform="translate(1189,766)" d="m0 0 2 1-1 5 5-1 4 5v3h-3l-1-3-6-2-1-4z" fill="#7C7C7C"/>
<path transform="translate(1239,388)" d="m0 0 3 1v7h-6l-1-4z" fill="#909191"/>
<path transform="translate(1115,1057)" d="m0 0 3 3v3l3 1-4 2-4-2v-6z" fill="#6B6A6C"/>
<path transform="translate(1222,530)" d="m0 0h2l1 7h2l2 8-5-1z" fill="#E0CC7E"/>
<path transform="translate(1288,894)" d="m0 0h2l1 11h2l-1 3-3 1-1-2z" fill="#E9E9E3"/>
<path transform="translate(17,522)" d="m0 0 5 2 1 5-3 1-5-3z" fill="#262529"/>
<path transform="translate(1208,878)" d="m0 0 4 1 4 4-5 2h-4v-2h2v-2l-3-1z" fill="#6F6E70"/>
<path transform="translate(1122,794)" d="m0 0 2 2v4l-3 1-3-1v3l-4 1v-5l4-2 4-1z" fill="#7A797A"/>
<path transform="translate(1119,762)" d="m0 0 3 1 1 4h2v2h-2l-1 3h-2v-3l-4-1 2-1z" fill="#818282"/>
<path transform="translate(1180,782)" d="m0 0h8l1 5h3l-1 4-4-2v-3l-7-2z" fill="#909191"/>
<path transform="translate(1530,711)" d="m0 0h1l1 12h-5l2-11z" fill="#6E6D6F"/>
<path transform="translate(1298,45)" d="m0 0 7 2-1 3-7 1-2-2v-3z" fill="#262529"/>
<path transform="translate(119,1411)" d="m0 0h4v8l-5-1-2-4h2z" fill="#0E0D14"/>
<path transform="translate(1226,1045)" d="m0 0 8 3 11 5-4 1-8-3v-2l-7-1z" fill="#565557"/>
<path transform="translate(1146,844)" d="m0 0 4 1 6 3 5 2-1 2-5-1-9-5z" fill="#7E7E7E"/>
<path transform="translate(1114,844)" d="m0 0 1 2 7 1-1 3-8 4v-5l2-1z" fill="#7E7E7E"/>
<path transform="translate(1187,822)" d="m0 0 4 1 3 5v2l-6 3-2-1v-2h2l-1-3 4 1-1-4-3-1z" fill="#6C6B6D"/>
<path transform="translate(1109,787)" d="m0 0h3l1 8-4 5z" fill="#CDCDCA"/>
<path transform="translate(1181,540)" d="m0 0 3 1 1 3v7l-4-1z" fill="#6E6D6F"/>
<path transform="translate(1463,501)" d="m0 0h1l2 7v6h-2l-1 2-2-10 1-4z" fill="#808081"/>
<path transform="translate(1482,220)" d="m0 0 3 3 1 13-2-1-3-14z" fill="#252428"/>
<path transform="translate(1295,52)" d="m0 0 8 4 1 3-4-1-4-2-3 1-2-1 1-3z" fill="#262529"/>
<path transform="translate(1375,1072)" d="m0 0 4 1-1 4-1 1h-8l4-3-7-1v-1z" fill="#D8D7D3"/>
<path transform="translate(1419,907)" d="m0 0 1 3-4 9-5 5v-3l6-10z" fill="#A1A1A1"/>
<path transform="translate(1222,888)" d="m0 0h2v4h2l3 4 3 1 1 4-5-3-3-3-5-3z" fill="#7D7D7D"/>
<path transform="translate(1175,854)" d="m0 0 6 6-1 2 2 1-5-1-6-3 4-2-2-1z" fill="#808080"/>
<path transform="translate(1144,819)" d="m0 0 2 1 4 3v3h4v3l-8-1 1-2 2 1-1-4-6-1v-2z" fill="#7E7E7E"/>
<path transform="translate(1142,788)" d="m0 0 2 1-1 5-9-1 1-3z" fill="#7C7C7C"/>
<path transform="translate(1141,800)" d="m0 0 5 1 1 2h5l1-2 1 2-3 3h-5l-5-3z" fill="#7D7D7D"/>
<path transform="translate(1157,747)" d="m0 0h3l1 2h5l1 3h-3v2l-7-2z" fill="#7C7B7C"/>
<path transform="translate(1194,871)" d="m0 0 6 3v2l3 1 1 4-5-2-3-2v-3h-4v-2z" fill="#7F7F7F"/>
<path transform="translate(1113,864)" d="m0 0 4 2v7l-4 1z" fill="#7A7A7A"/>
<path transform="translate(1192,807)" d="m0 0h8v2h-2v2h2v2h-3v-3l-8 1v-2h3z" fill="#909191"/>
<path transform="translate(1166,774)" d="m0 0h13l1 2h-4v2l-9-1z" fill="#909191"/>
<path transform="translate(1184,635)" d="m0 0h2l2 7-1 5-2 2-2-5 1-5z" fill="#7D7D7D"/>
<path transform="translate(1186,619)" d="m0 0h1v9h-3v7l-2-1v-7l1-4h3z" fill="#7D7D7D"/>
<path transform="translate(996,568)" d="m0 0h2l1 7-2 6h-2v-12z" fill="#0C1015"/>
<path transform="translate(1384,1065)" d="m0 0 1 2-4 6-2 1-8-2 9-3z" fill="#9A9B9B"/>
<path transform="translate(456,991)" d="m0 0 2 1v3l-5 2-5-1 2-3z" fill="#0C1015"/>
<path transform="translate(1156,760)" d="m0 0 3 1 3 7-1 4-5-7z" fill="#777778"/>
<path transform="translate(1176,729)" d="m0 0 6 1v5l-2 1v-2l-10-3v-1z" fill="#ADADAD"/>
<path transform="translate(473,935)" d="m0 0 3 1-1 6h-4l-1-4z" fill="#0E0D14"/>
<path transform="translate(1162,811)" d="m0 0 5 2 1 4-3 1-2-1v-2l-5 1 2-1v-2h2z" fill="#7D7D7D"/>
<path transform="translate(1219,610)" d="m0 0 2 3-1 13v6l-2 1v-21z" fill="#7D7D7D"/>
<path transform="translate(1113,855)" d="m0 0 4 1 2 5-1 1h-5z" fill="#7A7A7A"/>
<path transform="translate(1139,807)" d="m0 0h5l-1 3 3 1-1 3h-2v-2l-5-1z" fill="#7D7D7D"/>
<path transform="translate(1016,603)" d="m0 0 1 3-1 9-2 5h-2l2-9z" fill="#C1A43D"/>
<path transform="translate(132,1429)" d="m0 0 5 3 6 3v3l-5-2-6-4z" fill="#302F33"/>
<path transform="translate(1285,1167)" d="m0 0 6 1h6l-4 2h-14l2-2z" fill="#424147"/>
<path transform="translate(1176,818)" d="m0 0 4 1 5 3-3 4-3-1 1-4-4-1z" fill="#6C6B6D"/>
<path transform="translate(1143,741)" d="m0 0h2l1 6-2 2-2-1v-3l-2-1z" fill="#7B7B7B"/>
<path transform="translate(43,229)" d="m0 0 1 3h2l1-2 1 3-1 5-1-2-4 1z" fill="#242327"/>
<path transform="translate(1221,865)" d="m0 0 4 2 2 6-5-2-3-3v-2z" fill="#7B7B7B"/>
<path transform="translate(1230,864)" d="m0 0 8 8v2l2 1-5-1-1-3-4-2z" fill="#7D7D7D"/>
<path transform="translate(1164,784)" d="m0 0 3 1-1 7h-3l-3-5h3z" fill="#6E6D6F"/>
<path transform="translate(1155,765)" d="m0 0 5 5-5-1 2 4-2 1-2-1v-6z" fill="#909191"/>
<path transform="translate(1116,746)" d="m0 0h4v2l-4 1 1 2 3 2-2 3h-2v-3l-2-1v-4h2z" fill="#6D6C6E"/>
<path transform="translate(1194,809)" d="m0 0 3 1v3l-10 2 1-3h4v-2z" fill="#707071"/>
<path transform="translate(1116,783)" d="m0 0h2l1 3 4 2-4 2h-2v-3l-3 1-1-2h2z" fill="#909191"/>
<path transform="translate(1163,770)" d="m0 0 2 1-1 5 2 3h-4l-2-5 1-3z" fill="#909191"/>
<path transform="translate(1112,759)" d="m0 0h3l1 8-4-1z" fill="#7E7E7F"/>
<path transform="translate(1199,634)" d="m0 0h4l1 3-1 4-4-1z" fill="#AFAFAF"/>
<path transform="translate(1e3 530)" d="m0 0h4l-1 9-4-4z" fill="#0C1015"/>
<path transform="translate(858,1142)" d="m0 0 11 6 4 3-5-1-6-3-4-3z" fill="#A6976A"/>
<path transform="translate(1149,812)" d="m0 0 5 2-1 5-8-4z" fill="#7A7A7A"/>
<path transform="translate(1136,809)" d="m0 0 2 4 4 4h-3l-2-1v-2l-3 1-1-4z" fill="#7D7D7D"/>
<path transform="translate(1113,780)" d="m0 0 2 1v2h-2l1 5-2 3v-4h-3l1-4 3-1z" fill="#A5A6A6"/>
<path transform="translate(1176,776)" d="m0 0 5 1 2 1v3l-5 2v-4l-2-1z" fill="#747374"/>
<path transform="translate(1448,470)" d="m0 0 4 2 3 5-1 4-3-4-3-5z" fill="#8D8D8D"/>
<path transform="translate(1245,462)" d="m0 0 1 3-7 11-2 1 2-6z" fill="#818182"/>
<path transform="translate(1513,439)" d="m0 0h2l4 8 1 6-2-1-5-11z" fill="#E4E3DE"/>
<path transform="translate(1513,321)" d="m0 0 2 1v2h3l-2 4-3 1-1-7z" fill="#0E0D14"/>
<path transform="translate(50,301)" d="m0 0 2 1-1 9h-2l-1 2v-3l1-8z" fill="#262529"/>
<path transform="translate(40,289)" d="m0 0h1v8h-3l-1 2v-6l1-3z" fill="#262529"/>
<path transform="translate(906,1467)" d="m0 0 3 1 1 2 5 1-1 3-4-1-5-5z" fill="#0E0D14"/>
<path transform="translate(1392,942)" d="m0 0m-1 1 1 2-4 3h-2l-1 4h-3v-3z" fill="#8A8B8B"/>
<path transform="translate(1180,605)" d="m0 0 4 1 3 3 1-2v3l-5-1-2 3-2-6z" fill="#7D7D7D"/>
<path transform="translate(1180,519)" d="m0 0 3 1 2 3-1 5-3 1v-8z" fill="#7D7D7D"/>
<path transform="translate(1182,423)" d="m0 0 1 2-2 7-2 2-2-1 2-5z" fill="#ACABAA"/>
<path transform="translate(1518,359)" d="m0 0h1v11l-4-1 1-5z" fill="#262529"/>
<path transform="translate(27,260)" d="m0 0h4v6l-5-1z" fill="#3A373A"/>
</svg>
